<?xml version="1.0" standalone="no"?><!DOCTYPE svg PUBLIC "-//W3C//DTD SVG 1.1//EN" "http://www.w3.org/Graphics/SVG/1.1/DTD/svg11.dtd"><svg t="1602120590578" class="icon" viewBox="0 0 1024 1024" version="1.1" xmlns="http://www.w3.org/2000/svg" p-id="3290" xmlns:xlink="http://www.w3.org/1999/xlink" width="64" height="64"><defs><style type="text/css"></style></defs><path d="M981.448462 133.180788a35.367512 35.367512 0 0 0-35.367512 35.367512v85.103076a505.092283 505.092283 0 0 0-939.449541 221.046951 35.367512 35.367512 0 0 0 32.604425 38.130599 35.367512 35.367512 0 0 0 35.367512-32.604425 434.357258 434.357258 0 0 1 819.53157-165.785213h-93.944954a35.367512 35.367512 0 1 0 0 71.287641h181.2585a35.367512 35.367512 0 0 0 35.367512-35.367512V168.5483a35.367512 35.367512 0 0 0-35.367512-35.367512z m0 379.095521a35.367512 35.367512 0 0 0-38.130599 32.604425 434.357258 434.357258 0 0 1-819.531571 165.785213h100.023746a35.367512 35.367512 0 1 0 0-71.287642H42.551538a35.367512 35.367512 0 0 0-35.367512 35.367513v181.258499a35.367512 35.367512 0 1 0 71.287642 0v-85.655693a505.092283 505.092283 0 0 0 939.449541-221.046951 35.367512 35.367512 0 0 0-34.814895-37.025364z" fill="#5E5C5C" p-id="3291"></path></svg>